<?xml version="1.0" encoding="utf-8"?>
<!-- Generator: Adobe Illustrator 16.0.0, SVG Export Plug-In . SVG Version: 6.00 Build 0)  -->
<!DOCTYPE svg PUBLIC "-//W3C//DTD SVG 1.1//EN" "http://www.w3.org/Graphics/SVG/1.1/DTD/svg11.dtd">
<svg version="1.1" id="Layer_1" xmlns="http://www.w3.org/2000/svg" xmlns:xlink="http://www.w3.org/1999/xlink" x="0px" y="0px"
	 width="600px" height="600px" viewBox="0 0 600 600" enable-background="new 0 0 600 600" xml:space="preserve">
<g>
	<path fill="#E2E2E2" d="M134.565,505.588V229.562H489.15v276.026H134.565z"/>
	<path fill="#F91E1E" d="M93.82,172.818v75.489c0.396,34.483,25.258,62.068,55.545,61.616c29.724-0.439,53.74-27.771,54.116-61.616
		c0.396,34.483,25.258,62.068,55.544,61.616c29.734-0.439,53.74-27.771,54.117-61.616c0.396,34.483,25.26,62.068,55.546,61.616
		c29.723-0.439,53.738-27.771,54.115-61.616c0.397,34.483,25.26,62.068,55.544,61.616c29.726-0.439,53.739-27.771,54.116-61.616
		v-75.489H93.82z"/>
	<rect x="92.75" y="505.588" width="438.36" height="31.215"/>
	<rect x="256.604" y="361.247" width="110.497" height="144.371"/>
	<g>
		<polygon fill="#E21B1B" points="462.38,93.544 532.466,172.818 93.82,172.818 163.903,93.544 		"/>
	</g>
</g>
</svg>
