<?xml version="1.0" encoding="utf-8"?>
<!-- Generator: Adobe Illustrator 16.0.0, SVG Export Plug-In . SVG Version: 6.00 Build 0)  -->
<!DOCTYPE svg PUBLIC "-//W3C//DTD SVG 1.1//EN" "http://www.w3.org/Graphics/SVG/1.1/DTD/svg11.dtd">
<svg version="1.1" id="Layer_1" xmlns="http://www.w3.org/2000/svg" xmlns:xlink="http://www.w3.org/1999/xlink" x="0px" y="0px"
	 width="600px" height="400px" viewBox="0 0 600 400" enable-background="new 0 0 600 400" xml:space="preserve">
<path fill="#E2E2E2" d="M179.154,323.586V159.04h240.673v164.546H179.154z"/>
<path fill="#F91E1E" d="M151.498,125.214v45.001c0.269,20.557,17.144,37,37.701,36.731c20.175-0.263,36.476-16.556,36.731-36.731
	c0.269,20.557,17.144,37,37.701,36.731c20.182-0.263,36.476-16.556,36.732-36.731c0.269,20.557,17.145,37,37.701,36.731
	c20.175-0.263,36.475-16.556,36.731-36.731c0.269,20.557,17.144,37,37.7,36.731c20.176-0.263,36.476-16.556,36.732-36.731v-45.001
	H151.498z"/>
<rect x="150.772" y="323.586" width="297.536" height="18.606"/>
<rect x="261.987" y="237.541" width="75" height="86.063"/>
<g>
	<polygon fill="#E21B1B" points="401.657,77.957 449.228,125.214 151.498,125.214 199.067,77.957 	"/>
</g>
</svg>
