<?xml version="1.0" ?><svg height="512" preserveAspectRatio="xMidYMid" viewBox="0 0 512 512" width="512" xmlns="http://www.w3.org/2000/svg" xmlns:xlink="http://www.w3.org/1999/xlink"><defs><style>
      .cls-1 {
        fill: #fff;
      }

      .cls-2 {
        fill: #fe5a01;
      }

      .cls-2, .cls-3 {
        fill-rule: evenodd;
      }

      .cls-3 {
        fill: #000;
        opacity: 0.1;
      }
    </style></defs><circle class="cls-1" cx="256" cy="256" r="256"/><path class="cls-2" d="M320.993,503.666 L320.338,212.517 C320.338,212.517 320.445,206.828 314.876,206.828 C307.875,206.828 296.932,206.828 289.886,206.828 C284.232,206.828 284.327,212.580 284.327,212.580 L284.327,259.798 C284.327,259.798 173.986,259.798 142.141,259.798 C133.411,259.798 133.513,268.042 133.513,268.042 L133.957,481.092 C54.165,437.738 0.000,353.194 0.000,256.000 C0.000,114.615 114.615,0.000 256.000,0.000 C397.385,0.000 512.000,114.615 512.000,256.000 C512.000,374.926 430.901,474.902 320.993,503.666 ZM261.820,83.984 C184.463,83.984 145.905,146.486 145.905,201.193 C145.905,215.692 169.538,210.116 169.538,201.193 C169.538,142.082 212.673,105.397 262.945,105.397 C275.213,105.397 278.526,83.984 261.820,83.984 ZM269.697,127.937 C208.196,127.937 190.920,179.724 190.920,205.701 C190.920,222.042 214.553,220.503 214.553,204.574 C214.553,166.027 249.485,151.605 270.823,151.605 C282.119,151.605 285.596,127.937 269.697,127.937 ZM187.544,310.513 L267.446,310.513 C271.797,310.513 275.324,314.045 275.324,318.402 C275.324,322.759 271.797,326.291 267.446,326.291 L187.544,326.291 C183.193,326.291 179.666,322.759 179.666,318.402 C179.666,314.045 183.193,310.513 187.544,310.513 ZM187.544,337.562 L267.446,337.562 C271.797,337.562 275.324,341.093 275.324,345.450 C275.324,349.807 271.797,353.340 267.446,353.340 L187.544,353.340 C183.193,353.340 179.666,349.807 179.666,345.450 C179.666,341.093 183.193,337.562 187.544,337.562 ZM187.544,363.483 L267.446,363.483 C271.797,363.483 275.324,367.015 275.324,371.372 C275.324,375.729 271.797,379.261 267.446,379.261 L187.544,379.261 C183.193,379.261 179.666,375.729 179.666,371.372 C179.666,367.015 183.193,363.483 187.544,363.483 Z"/><path class="cls-3" d="M436.999,75.012 C536.959,174.972 536.959,337.039 436.999,436.999 C337.039,536.959 174.972,536.959 75.012,436.999 "/></svg>