<svg width="20" height="20" viewBox="0 0 20 20" fill="none" xmlns="http://www.w3.org/2000/svg">
<path fill-rule="evenodd" clip-rule="evenodd" d="M7.015 2.70833C7.24833 2.21667 7.75083 1.875 8.33333 1.875H11.6667C12.2483 1.875 12.7508 2.21667 12.985 2.70833C13.5542 2.71333 13.9983 2.73917 14.395 2.89417C14.8685 3.07939 15.2803 3.39418 15.5833 3.8025C15.8892 4.21333 16.0325 4.74167 16.23 5.4675L16.2608 5.58083L16.7525 7.38667C17.0803 7.55207 17.3677 7.78765 17.5942 8.07667C18.1125 8.74083 18.2042 9.53167 18.1125 10.4383C18.0225 11.3183 17.7458 12.4267 17.3992 13.8142L17.3767 13.9017C17.1575 14.7792 16.9792 15.4917 16.7683 16.0475C16.5467 16.6275 16.2667 17.1025 15.8042 17.4633C15.3425 17.8242 14.8133 17.98 14.1975 18.055C13.6067 18.125 12.8725 18.125 11.9683 18.125H8.03167C7.1275 18.125 6.3925 18.125 5.8025 18.0542C5.18583 17.9808 4.6575 17.8242 4.195 17.4625C3.73333 17.1025 3.45333 16.6275 3.23167 16.0475C3.02 15.4917 2.8425 14.7792 2.62333 13.9017L2.60083 13.8142C2.25417 12.4267 1.97667 11.3183 1.8875 10.4392C1.79583 9.53083 1.8875 8.74083 2.405 8.07667C2.64083 7.775 2.92333 7.55167 3.24667 7.38667L3.73833 5.58083L3.77 5.4675C3.9675 4.74167 4.11083 4.21333 4.41667 3.80167C4.71977 3.39365 5.13158 3.07916 5.605 2.89417C6.00167 2.73917 6.445 2.7125 7.015 2.70833ZM7.01583 3.96083C6.46417 3.96667 6.24333 3.9875 6.06 4.05917C5.80497 4.1589 5.58318 4.32842 5.42 4.54833C5.27333 4.74583 5.18667 5.02167 4.945 5.91083L4.65 6.99083C5.515 6.875 6.63167 6.875 8.01833 6.875H11.9808C13.3683 6.875 14.485 6.875 15.3492 6.99083L15.055 5.91C14.8125 5.02083 14.7267 4.745 14.58 4.5475C14.4168 4.32759 14.195 4.15807 13.94 4.05833C13.7567 3.98667 13.535 3.96583 12.9833 3.96C12.8649 4.20888 12.6783 4.41911 12.4453 4.5663C12.2123 4.7135 11.9423 4.79164 11.6667 4.79167H8.33333C8.0577 4.79164 7.78773 4.7135 7.55469 4.5663C7.32166 4.41911 7.13511 4.20888 7.01667 3.96M8.33333 3.125C8.27808 3.125 8.22509 3.14695 8.18602 3.18602C8.14695 3.22509 8.125 3.27808 8.125 3.33333C8.125 3.38859 8.14695 3.44158 8.18602 3.48065C8.22509 3.51972 8.27808 3.54167 8.33333 3.54167H11.6667C11.7219 3.54167 11.7749 3.51972 11.814 3.48065C11.8531 3.44158 11.875 3.38859 11.875 3.33333C11.875 3.27808 11.8531 3.22509 11.814 3.18602C11.7749 3.14695 11.7219 3.125 11.6667 3.125H8.33333ZM4.75 8.23833C3.99167 8.34833 3.62417 8.54833 3.39167 8.84667C3.15833 9.14417 3.05417 9.54833 3.13167 10.3117C3.21083 11.0917 3.465 12.1117 3.82667 13.5617C4.05833 14.485 4.21833 15.125 4.40167 15.6033C4.57667 16.065 4.74917 16.3092 4.96583 16.4783C5.18167 16.6467 5.46 16.7542 5.95167 16.8133C6.46 16.8742 7.11833 16.875 8.07167 16.875H11.93C12.8825 16.875 13.5425 16.8742 14.05 16.8133C14.5417 16.755 14.82 16.6467 15.0358 16.4783C15.2525 16.3092 15.4242 16.065 15.6008 15.6033C15.7825 15.125 15.9433 14.485 16.1742 13.5617C16.5367 12.1117 16.7908 11.0917 16.8692 10.3117C16.9475 9.54833 16.8425 9.14333 16.61 8.84583C16.3775 8.54833 16.01 8.34833 15.2508 8.23833C14.4758 8.12667 13.4242 8.125 11.93 8.125H8.07167C6.5775 8.125 5.52583 8.12667 4.75083 8.23833" fill="white"/>
</svg>
